<?xml version="1.0" encoding="utf-8"?>
<!-- Generator: Adobe Illustrator 26.0.3, SVG Export Plug-In . SVG Version: 6.00 Build 0)  -->
<svg version="1.1" id="Layer_1" xmlns="http://www.w3.org/2000/svg" xmlns:xlink="http://www.w3.org/1999/xlink" x="0px" y="0px"
	 viewBox="0 0 30.9 26.9" style="enable-background:new 0 0 30.9 26.9;" xml:space="preserve">
<style type="text/css">
	.st0{fill:#FFFFFF;}
</style>
<g>
	<path class="st0" d="M30.8,25.8L30.8,25.8L30.8,25.8c-0.1-0.1-0.1-0.1-0.1-0.1h0c0,0,0,0,0,0c0,0,0,0,0,0c0,0,0,0,0,0
		c0,0-0.1,0-0.1,0c0,0,0,0,0.1,0c0,0,0,0,0,0c0,0,0,0,0,0c0,0,0,0,0,0c0,0,0,0,0,0c0,0,0,0,0,0c0,0,0,0,0,0c0,0-0.1,0-0.1,0
		c0,0,0,0,0,0v0c0,0,0,0,0,0h0.1c0,0,0,0,0,0c0.1,0,0-0.1,0-0.1h0l0,0c0,0,0,0,0-0.1c0,0,0,0,0,0c0,0,0.1,0,0.1,0c0,0,0,0,0,0
		c0.1,0,0.1-0.1,0-0.1c0,0,0,0-0.1,0c0,0,0,0,0,0c0,0,0,0,0,0c0,0,0,0,0,0c0,0,0,0,0,0c0,0,0,0,0,0c0,0,0,0,0,0h0c0,0,0,0,0-0.1
		c0,0-0.1,0-0.1,0c0,0,0,0,0,0c0,0,0,0,0,0v0c0,0,0,0,0,0c0,0,0,0.1,0,0.1l0,0c0,0,0,0,0,0v0c0,0,0-0.1,0-0.1v0c0,0,0,0,0,0
		c0,0,0,0,0,0c0,0,0,0,0,0c0,0,0,0,0,0c0,0,0,0,0,0c0,0-0.1,0-0.1,0c0,0,0,0,0,0c0.1,0,0.1,0,0,0h0c0,0,0.1,0,0.1,0c0,0,0,0,0,0v0
		c0,0,0,0,0,0c0,0,0,0,0,0c0,0,0,0,0,0c0,0,0,0,0,0c0,0,0,0,0,0c0,0-0.1-0.1-0.1-0.1c-0.1,0,0,0,0,0c0,0,0,0,0.1,0
		c0.1,0,0.1,0,0.1,0c0,0,0,0,0,0c0,0-0.1,0-0.1,0c0,0,0,0,0,0c0,0,0,0,0,0c0,0,0,0,0,0c0,0,0,0,0,0c0,0,0,0,0,0.1c0,0,0,0.1,0.1,0.1
		c0,0-0.1-0.1-0.1-0.1c0,0,0-0.1-0.1,0h0c-0.1,0-0.1,0-0.2,0c0,0,0,0,0.1,0h0c-0.1,0-0.1,0-0.2,0h0c0,0,0,0,0,0c0,0,0-0.1-0.1-0.1
		c0,0,0,0,0,0c0,0,0,0,0,0c0,0-0.1,0-0.1,0c0,0,0,0,0,0c0,0-0.1,0-0.1,0c0,0,0,0,0.1,0c0,0,0.1,0,0,0v0c0,0,0,0,0,0c0,0,0,0,0,0
		c0,0,0,0,0,0c0,0,0,0,0,0c0,0,0,0,0,0h0c0,0,0,0,0,0c0,0,0,0,0,0c0,0,0,0,0,0l0,0c0,0,0,0,0,0h0c0,0,0,0,0,0c0-0.1-0.2-0.2-0.3-0.1
		c0,0,0,0.1,0,0.1c0,0,0,0,0,0s0,0,0,0c0,0,0,0,0,0c0,0,0,0.1-0.1,0c0,0,0.1,0,0.1,0c0,0,0-0.1-0.1,0c0,0,0,0,0,0c0,0,0,0,0,0
		c0,0,0,0,0,0l0,0c0-0.1-0.3-0.1-0.3,0l0,0c0,0,0,0,0,0c0,0,0,0-0.1,0c-0.1,0-0.1,0-0.1,0v0v0c0,0,0,0,0,0c0,0,0,0,0,0v0
		c0,0,0,0,0,0c0,0,0,0,0,0c0,0,0,0,0,0c0,0,0,0,0,0c0,0,0,0-0.1,0H29v0.1c0,0,0,0,0,0c0,0,0,0,0,0c0,0,0,0,0,0l0,0c0,0,0-0.1,0-0.1
		c0,0,0,0,0,0c0,0,0,0,0,0c-0.1,0-0.2,0-0.3,0c0,0,0,0,0,0s0.1,0.1,0.1,0.1c0,0-0.1,0-0.1,0l0,0c0,0,0-0.1,0-0.1c0,0,0,0,0,0
		c0,0,0,0-0.1,0h0l0,0h0.1c0,0-0.1,0-0.1,0c0,0-0.1,0-0.1,0h0c0,0,0,0,0,0c0.1,0,0.2,0,0.3,0c-0.1,0-0.2,0-0.2,0c-0.1,0-0.1,0-0.2,0
		c0,0,0.1,0,0.2,0c0,0,0,0,0,0h0c0,0,0,0,0,0c-0.1,0-0.1,0-0.1,0c0,0-0.1,0-0.1-0.1c0-0.1-0.1-0.1-0.1,0c0,0,0,0,0,0h0v0
		c0,0,0,0,0,0h0c0,0,0,0,0,0c0,0,0,0-0.1,0c0,0-0.1,0-0.1,0c0,0,0,0,0,0l-0.1,0c0,0,0,0-0.1,0h-0.1c0,0-0.1,0-0.1,0c0,0,0,0,0,0
		c0,0,0,0,0,0h0c0,0,0,0,0,0c0,0,0,0,0,0c0,0,0,0,0.2,0c0.1,0,0.2,0,0.2,0c0,0-0.1-0.1-0.2-0.1c-0.1,0-0.1,0-0.1,0c0,0,0,0-0.1,0
		c0,0,0,0,0,0.1c0,0,0,0,0,0c0,0,0,0,0,0c0,0,0,0,0.1,0c0,0,0,0,0,0v0c0-0.1-0.1-0.1-0.1,0c0,0,0,0.1,0,0.1c0,0,0,0-0.1,0h0
		c0,0,0,0,0,0c0,0-0.1,0-0.1,0h0.1H27h0c0,0-0.1,0-0.1,0c0,0,0,0,0,0c0,0,0,0,0,0c0,0,0,0,0,0c-0.2,0-0.3,0-0.5,0c0,0,0,0,0,0v0H26
		v0c0,0,0,0,0,0c0,0,0,0,0,0c0,0,0-0.1,0-0.1c0,0,0,0,0,0c0,0-0.3-0.1-0.3,0c0,0,0,0,0,0c-0.1,0-0.1,0-0.1,0c0-0.1,0-0.1,0,0
		c0,0,0,0,0,0.1c0,0,0,0,0,0V25v0c0,0,0,0.1,0,0.1c0,0,0,0,0,0h0c0,0,0,0,0,0V25h-0.1c-0.1,0-0.1,0-0.1,0c0,0,0,0,0,0c0,0,0,0,0,0
		c0,0,0,0,0,0l-0.1,0h0c-0.1,0-0.1,0-0.2,0h0c0,0,0.1,0,0.1,0l0,0h0c0,0-0.1,0-0.1,0h-0.1c0,0,0,0,0,0h-0.1l0,0l0.1,0h0
		c0.1,0,0.2,0,0.3,0c0,0,0-0.1-0.4-0.1h-0.3v0c0,0,0-0.1,0,0s0,0.1,0.1,0.1h-0.1c0,0-0.1,0-0.1,0c0,0,0,0,0,0c0,0,0,0,0,0s0,0,0,0
		c0,0,0,0,0,0c0,0,0,0,0,0c0,0,0,0,0,0c0,0,0,0,0,0c0,0,0,0,0,0c0,0,0,0,0,0v0l0,0c-0.1,0,0,0.1,0,0.1h0h0c0,0,0,0,0,0c0,0,0,0,0,0
		c0,0,0,0,0,0h0c0,0,0-0.1,0-0.1c0,0,0,0,0,0c0,0,0,0,0,0c0,0,0,0,0,0c0,0,0,0,0,0c0,0-0.3,0.1-0.3,0c0,0,0,0,0,0c0,0-0.1,0,0,0
		c0,0,0,0,0,0c0,0,0,0,0,0c0,0,0,0,0,0c0,0-0.1-0.1-0.2,0v0c0,0,0,0,0,0c0,0.1,0,0.1,0.1,0l0.1,0h-0.1c-0.1,0-0.1,0-0.1,0
		c0,0,0.1,0,0.1,0c0.1,0,0.1,0,0.1,0c0,0,0,0,0,0c0,0,0,0,0,0c0,0,0,0,0,0c0,0-0.1,0-0.1,0h0c0,0,0,0-0.1,0c0,0,0,0,0,0c0,0,0,0,0,0
		c0,0,0,0,0,0s0,0,0,0c0,0,0,0-0.1,0c0,0,0,0-0.2,0h-0.2V25h-0.1c0,0-0.1,0-0.1,0H23c0,0-0.1,0-0.1,0c0.1,0,0,0-0.2,0h-0.1
		c0,0-0.1,0-0.1,0c0,0,0,0-0.1,0c0,0-0.1,0-0.1,0l-0.1,0h0.1c0,0,0,0,0.1,0c0,0-0.1,0-0.2,0c0,0,0,0,0,0c0,0,0,0,0,0v0
		c0,0,0,0,0-0.1c0,0,0,0,0,0v0c0,0,0-0.1,0,0v0c0,0,0,0,0,0.1c0,0,0,0,0,0c0,0,0,0,0,0l0,0c0,0,0,0,0,0c0,0,0.1-0.1,0-0.1v0
		c0,0,0,0,0,0v0h0c0,0,0,0,0,0v0h-0.3c-0.2,0-0.3,0-0.4,0s0,0,0,0c0,0,0,0,0.3,0h0.2h0c-0.1,0-0.2,0-0.1,0c0.2,0,0.3,0,0.3-0.1
		c0,0,0,0.1-0.1,0.1h-0.1c0,0,0,0,0.1,0h-0.3c0.1,0,0.2,0,0.3,0c0,0-0.1,0-0.1,0h-0.2c-0.1,0-0.2,0-0.4,0c0,0,0.1,0,0.2,0h0.1
		c-0.1,0-0.1,0-0.2,0h0.1h-0.2c0,0-0.1-0.1,0-0.1c0,0,0,0,0,0c0,0,0,0,0,0l0,0l0,0c0,0-0.1,0-0.1,0c0,0,0,0-0.1,0.1h0c0,0-0.1,0,0,0
		c0,0,0-0.1,0-0.1c0.1,0,0,0,0,0c0,0,0,0,0,0c0,0,0,0,0,0s0,0,0,0c0-0.1,0-0.1-0.1-0.1c-0.1,0-0.1,0-0.1,0c0,0,0,0-0.1,0h-0.1l0.1,0
		c0,0,0,0,0,0c-0.1,0-0.3,0-0.4,0c0,0,0,0,0,0c0,0-0.2,0-0.2,0c0,0,0,0,0,0c0,0,0,0,0,0c0,0,0,0,0,0c0,0,0,0,0,0c0,0,0,0,0,0v0
		c0,0,0,0,0,0c0,0,0,0,0.2,0h0.1c0,0,0,0,0,0c0,0,0,0,0,0c0,0,0,0,0,0c0.1,0,0.2,0,0.3,0c0,0,0,0,0,0c0,0-0.1,0-0.1,0
		c0.1,0,0.1,0,0,0c0.1,0,0.2,0,0.2,0c0,0,0,0,0,0c0,0,0,0,0,0c0,0,0,0,0,0l0,0v0c0,0,0,0,0,0l0,0l-0.1,0h0.1c0,0-0.1,0-0.1,0
		s-0.1,0,0,0c0.1,0,0.1,0,0.2,0c0,0,0,0,0,0l-0.2,0l-0.1,0c0,0,0,0,0,0h0c0,0-0.1,0-0.1,0h0c0,0,0,0,0,0c0,0,0,0,0,0c0,0,0,0,0,0
		c0,0,0,0,0,0s0,0,0,0c0,0,0,0,0,0c0,0,0,0-0.1,0s-0.1,0,0,0c0,0,0,0,0,0c0,0-0.1,0,0,0h0c0,0,0,0-0.1,0c0,0,0,0,0,0
		c0,0-0.1,0-0.1,0c0,0,0,0,0,0h0l0,0c0.1,0,0.1,0,0,0.1l-0.1,0l-0.1,0l0,0c-0.1,0-0.1,0-0.1-0.1c0,0,0.1,0.1,0.2,0c0.1,0,0,0-0.1,0
		c-0.1,0-0.1,0-0.1,0c0,0,0,0,0.1,0s0.1,0,0.1,0c0-0.1-0.2-0.1-0.2,0c0,0,0,0,0,0v0c0.1,0,0-0.1-0.1-0.1c-0.1,0-0.2,0-0.2,0.1
		c0,0.1-0.1,0.1-0.1,0c0-0.1-0.1,0-0.1,0c0,0,0,0,0,0c0,0,0,0,0,0l-0.1,0c0,0,0,0,0,0c0,0-0.1,0-0.1,0c0,0,0.1,0,0.1,0l0.1,0h-0.1
		c0,0,0.1,0,0.1,0c0,0-0.1,0-0.2,0c0,0,0,0,0,0c0,0,0,0-0.1,0c0,0,0,0,0,0c0,0,0,0,0,0c0,0,0-0.1,0,0v0l0,0c0,0,0,0,0,0
		c0,0,0,0,0,0.1c0,0,0,0,0,0c0,0,0,0,0,0c0,0,0,0,0-0.1l0,0l0,0c0,0.1,0,0.1-0.1,0.1h0c0.1,0,0.1,0,0.1-0.1c0,0,0,0,0,0s0,0,0,0
		c0,0-0.1,0-0.2,0h0c-0.1,0-0.1,0-0.2,0c-0.2,0-0.2,0-0.2,0c0,0,0,0,0,0h0c0,0,0,0-0.1,0h-0.1h0.1c0,0,0.1,0,0.1,0v0l0,0
		c-0.1,0-0.1,0-0.2,0c0,0,0,0,0,0l0,0c-0.1,0-0.1,0-0.2,0h0c0,0,0,0,0,0c0,0-0.1,0-0.1,0h-0.1c0,0,0,0-0.1,0h0h0.1h-0.1h0.1
		c0.2,0,0.2,0,0.1-0.1c-0.1,0-0.1,0-0.1,0l0,0l0,0c0,0-0.1,0-0.1,0c0,0,0,0,0,0c0,0,0,0,0,0c0,0,0,0,0,0c0,0,0,0,0,0c0,0,0,0,0,0
		c0,0,0,0,0,0c0,0,0,0,0,0c0,0,0,0,0,0c0,0,0,0,0,0v0c0,0,0,0,0,0c0,0,0,0,0,0s0,0,0,0c0,0,0,0,0,0c0,0,0-0.1-0.1,0c0,0,0,0,0,0.1
		c0,0,0,0,0,0c0,0,0,0,0,0l0,0c0,0,0,0,0-0.1v0c0,0,0,0,0,0c0,0,0,0,0,0c0,0,0-0.1,0-0.1c0,0,0,0,0,0c0,0,0,0,0,0c0,0,0,0,0,0v0
		c0,0,0,0,0,0c0,0,0,0,0,0c0,0,0,0,0,0l0,0c0,0-0.1,0.1,0,0.1l0.1,0h0h0l0,0l0,0c0,0-0.1,0-0.2,0s-0.2,0-0.2,0c0,0-0.1,0-0.1,0
		c-0.1,0-0.1,0,0,0c0,0,0,0,0,0c0,0-0.1,0-0.1,0h0c0,0,0,0,0,0h0c0,0,0,0,0,0c0,0,0,0,0,0c-0.2,0-0.3,0-0.5,0h-0.1h0
		c-0.1,0-0.1,0-0.1,0c0,0,0,0,0,0h0c0,0,0,0,0,0c0,0,0,0-0.1,0c0,0,0,0,0,0c0-0.1-0.1-0.1-0.1,0c0,0,0,0,0,0c0,0,0,0,0,0
		c0,0,0,0,0,0c0,0,0,0,0,0c0,0,0,0,0,0s-0.1,0-0.2,0c0,0,0,0.1,0.1,0.1c0.1,0,0.1,0,0.1,0c0,0,0,0,0,0c0,0-0.1,0.1-0.1,0.1h0
		c0.1,0,0,0,0,0c0,0,0,0,0,0c-0.1,0-0.1,0,0,0c0,0,0,0,0,0s0,0,0,0c0,0-0.1,0-0.1,0c0,0,0,0-0.1,0H15h0l0.1,0H15c-0.1,0-0.1,0-0.1,0
		c0,0,0,0,0,0c0,0,0,0,0,0c0,0,0,0,0,0h0c0,0,0,0,0,0c0,0,0,0,0,0c0,0,0,0,0,0c0,0,0,0,0,0c-0.1,0-0.1,0,0,0h0c0,0-0.1,0-0.1,0
		c0,0,0,0,0,0c0,0-0.1,0-0.1,0c0,0-0.1,0-0.1,0h0h-0.1c0,0-0.1,0-0.1,0c0,0,0.1,0,0.1,0h0c-0.1,0-0.1,0-0.1,0c0,0,0,0,0,0
		c0,0,0,0,0,0c0,0,0,0,0,0c0,0,0,0,0,0c0,0,0,0-0.1,0c-0.1,0-0.1,0-0.1,0s0,0-0.1,0c0,0-0.1,0-0.1,0c0,0,0,0-0.1,0c0,0,0,0,0.1,0
		c0,0,0,0,0,0c0,0,0,0,0,0h-0.1c0,0-0.1,0-0.1,0c0,0,0,0,0,0c0,0,0,0,0.1,0c0,0,0,0-0.1,0l-0.1,0h0c0,0,0,0,0.1,0c0,0,0,0,0.1,0
		s0.1,0,0.1,0c0,0,0,0,0,0c0,0,0,0,0,0c0,0,0,0,0,0c0,0,0,0-0.1,0h0c0,0,0,0-0.1,0c0,0-0.1,0-0.1,0c0,0,0,0,0,0h0c0,0,0,0,0,0
		c0,0,0,0,0,0c0,0,0,0,0,0l0,0l-0.1,0c-0.1,0-0.1,0-0.2,0.1c0,0,0,0,0,0c0,0,0,0,0,0h-0.1c0,0,0,0-0.1,0c0,0,0,0,0,0v0h0
		c0,0,0,0,0,0c0,0,0.1,0,0.1,0c0.1,0,0.1,0,0.1,0c0-0.1-0.1-0.1-0.1,0h0c0,0,0,0,0,0c0,0,0,0-0.1,0c0,0,0,0,0,0c0,0,0,0,0,0
		c0,0,0,0,0,0c0,0,0,0-0.1,0.1v0c0,0,0,0,0,0c-0.1,0-0.2,0-0.3,0h-0.3c0,0,0,0,0,0c0-0.1-0.1-0.1-0.2-0.1c-0.1,0-0.1,0-0.1,0
		c0,0,0,0,0,0c0,0,0,0,0,0c0,0,0,0-0.1,0s0,0,0,0s0.1,0,0.1-0.1c0,0.1,0,0.1-0.1,0.1c0,0,0,0-0.1,0c0,0,0,0,0,0c0,0-0.1,0-0.1,0l0,0
		h0h0c0,0,0,0-0.1,0h0c0,0,0.1,0,0.1,0c0,0,0,0,0,0s0,0,0,0s0,0,0,0c0,0,0.1,0,0.1,0v0v0c0,0,0,0-0.1,0c0,0,0,0,0,0c0,0,0,0,0,0
		c0,0,0,0,0,0c0,0,0,0-0.1,0c-0.1,0-0.1,0-0.1,0s0,0,0.1,0c0,0,0,0,0,0c0,0,0,0-0.1-0.1c-0.1,0-0.1,0-0.1,0c0,0,0,0,0,0
		c0,0,0,0,0.1,0c0,0,0,0,0,0c0,0,0,0,0,0h0h0c0,0,0,0,0,0c0,0-0.1,0-0.1,0l0,0h0c0,0,0,0,0,0c0,0,0,0,0,0h0c0,0,0,0,0,0c0,0,0,0,0,0
		c0,0,0.1,0,0.1,0s-0.1-0.1-0.2-0.1c0,0,0,0,0,0c0,0,0,0,0,0v0V25c0,0,0,0,0,0c0,0,0,0,0,0v0c0,0,0,0,0,0c0,0,0,0,0,0v0c0,0,0,0,0,0
		c0,0,0,0.1-0.1,0.1c0,0,0,0,0,0c0,0,0.1,0,0.1,0c0,0,0,0-0.1,0c0,0-0.1,0-0.1,0c0,0-0.1,0-0.1,0c0,0,0.1,0,0.1,0c0,0,0,0,0,0h-0.1
		c0,0,0,0,0,0c0,0,0,0,0,0c0,0,0,0,0.1,0c0,0-0.1,0-0.1,0c0,0,0,0-0.1,0h0c0,0,0,0,0,0c0,0-0.1,0-0.1,0l0.1,0c0,0,0,0-0.1,0h0
		c0,0,0.1,0,0.1,0c0,0,0,0,0,0c0.1,0,0.1,0,0.1,0c0-0.1-0.3-0.1-0.3,0c0,0,0,0,0,0s0,0,0,0c0,0,0,0.1,0.1,0.1c-0.1,0-0.1,0-0.1-0.1
		v-0.1V25c0,0,0,0,0,0c0,0,0,0,0,0v-0.1c0,0,0,0,0,0c0,0-0.1-0.1-0.1,0c0,0,0,0.1,0,0.1c-0.1,0-0.1,0-0.2,0c-0.2,0-0.2,0-0.2,0
		c0,0,0,0-0.1,0c0,0,0,0,0,0c0,0,0,0,0,0l0,0c-0.1,0-0.2-0.1-0.2,0c0,0,0,0,0,0v0l0,0c0,0,0,0,0,0c0,0,0,0,0,0v0c0,0,0,0,0,0
		c0,0,0,0-0.2,0H9.4v0.1l0.1,0c0,0,0.1,0,0.1,0v0c0,0,0,0-0.1,0c0,0-0.1,0-0.1,0c0,0,0,0,0,0c0,0,0,0,0.1,0c0,0,0,0,0.1,0
		c0,0,0,0-0.1,0H9.4h0.1c0,0,0,0,0.1,0l0,0H9.4c-0.1,0-0.1,0-0.1,0c-0.1,0-0.2,0-0.2,0c0,0,0,0,0,0H9c0,0,0,0,0,0H8.9c0,0,0,0-0.1,0
		c0,0,0,0,0,0c0,0,0,0-0.1,0h0.3C9,25,9,25,9,25c0.1,0,0.1,0,0.2,0c0,0,0,0-0.1,0c0.1,0,0.1,0,0.1,0c0,0,0,0,0,0H8.6
		c-0.1,0-0.1,0-0.1,0c-0.1,0-0.1,0-0.1,0c0,0,0,0-0.1,0c0,0,0,0,0,0c0,0,0,0,0,0c0,0,0,0.1,0.1,0.1c0,0-0.1,0-0.1-0.1c0,0,0,0,0,0
		c0,0,0,0,0,0.1v0c0,0,0-0.1,0-0.1c0,0,0,0,0,0.1c0,0,0,0,0,0c0,0,0,0,0,0c0,0,0,0,0-0.1c0,0,0,0,0,0c0,0,0,0.1-0.1,0.1c0,0,0,0,0,0
		h0h0c0,0-0.1,0-0.1,0c0,0,0,0,0.1,0c0,0,0,0,0.1,0c0,0,0,0,0.1,0l0,0c-0.1,0-0.1,0-0.2,0h0.1h0h0c0,0-0.1,0-0.1,0h0h0
		c-0.1,0-0.1,0-0.2,0h0c0,0-0.1,0-0.1,0H7.4l0.1,0c0,0,0.1,0,0.1,0c-0.1,0-0.2,0-0.2,0c0,0,0,0,0,0c0,0,0,0,0,0c0,0,0,0,0,0
		c0,0,0,0,0,0c0,0-0.1-0.1-0.1,0c0,0,0,0,0,0c0,0-0.1,0-0.1,0c0,0,0,0,0,0c0,0,0,0,0,0c0-0.1-0.2-0.1-0.3,0c0,0,0,0-0.1,0
		c0,0,0,0,0,0c0,0,0,0,0,0v0c0,0,0,0,0,0c0,0,0,0,0,0v0c0,0,0,0-0.1,0c0,0,0,0,0,0v0v0c0,0,0,0,0,0c0,0,0,0,0,0l0,0v0c0,0,0,0,0,0v0
		c0,0,0,0-0.1,0c0,0-0.1,0-0.1,0l0,0.1c0,0,0,0,0,0c0,0,0,0,0-0.1c0,0,0,0,0,0c0,0,0,0,0,0v0c0,0,0-0.1,0-0.1s0,0,0,0v0
		c-0.2,0-0.4,0-0.7,0c0,0,0,0,0,0c0,0,0,0,0,0c0,0,0,0,0,0c0,0,0,0,0,0c0,0,0,0,0,0h0c0,0,0-0.1-0.1-0.1c-0.1,0-0.2,0-0.1,0.1l0,0
		c0,0,0,0,0,0c0,0,0,0,0,0c0,0,0,0,0-0.1c0,0,0,0,0,0c0,0,0,0,0,0c0,0,0,0,0,0h0h0c0,0,0,0.1,0,0.1h0c0,0,0,0,0,0c0,0,0,0,0,0h0h0
		c0,0,0,0,0,0h0c0,0-0.1,0-0.1,0l0,0c0,0,0,0,0,0c0,0,0,0,0,0c0,0,0,0,0,0c0,0-0.1,0-0.1,0s0,0,0.1,0h0H5c0,0,0,0,0,0l0,0
		C5,25,4.9,25,5,24.9l0,0H5c0,0,0,0,0,0c0,0-0.1,0-0.1,0c-0.1,0-0.1,0-0.1,0v0v0c0-0.1,0-0.1,0,0c0,0.1,0,0.1,0.1,0.1
		c0,0-0.1,0-0.1,0c0,0,0,0,0,0c0-0.1,0-0.1,0,0v0h0c0,0,0,0,0,0c0,0,0,0,0-0.1c0-0.1,0-0.1,0,0v0H4.5c-0.1,0-0.1,0-0.1,0
		c0,0,0,0,0,0c0,0,0,0,0,0h0c0,0,0,0,0,0c0,0,0,0,0,0c0,0,0,0,0,0s0,0.1,0.1,0.1c0.1,0,0.1,0,0,0c0,0,0.1,0,0.1,0h0l0.1,0
		c0,0,0.1,0,0.1,0l0,0H4.5c0,0-0.1,0-0.1,0c0,0,0,0,0,0c0,0,0,0,0,0h0l0,0c0,0,0.1,0,0,0c0,0,0,0-0.1,0c0,0,0,0-0.1,0c0,0,0,0,0,0
		c0,0,0,0,0,0c0,0,0-0.1,0-0.1c0,0,0,0,0,0c0,0,0,0,0,0s0,0,0,0v0c0,0,0,0,0,0c0,0,0,0,0-0.1c0,0,0,0,0,0c0,0,0,0,0,0c0,0,0,0,0,0
		c0,0,0,0-0.1,0c0,0,0,0.1,0,0.1c0,0,0,0,0.1,0s0,0,0,0c0,0,0,0,0,0c0.1,0,0.1,0,0.1-0.1c0,0,0,0,0,0c0,0,0,0,0,0H4c0,0,0,0-0.1,0
		c0,0-0.1,0-0.2,0c0,0,0,0,0,0h0c0,0,0,0,0,0c0,0,0,0,0,0c0,0,0,0,0,0l0,0c0,0,0,0,0,0c0,0,0,0,0,0s0,0,0,0s0,0,0,0c0,0,0,0,0,0
		s-0.1-0.1-0.1,0c0,0,0,0,0,0s0,0,0,0h0l0,0c0,0,0,0,0,0.1l0,0c0,0,0,0,0,0c0,0,0.1-0.1,0,0c0,0,0,0,0,0c0,0,0,0,0,0c0,0,0,0,0,0
		c0-0.1-0.1,0-0.1,0s0,0,0,0h0c0,0,0,0,0,0c0,0,0,0,0,0c0,0,0,0,0,0c0,0,0,0,0,0v0H3.1c-0.3,0-0.3,0-0.3,0c0,0-0.1,0.1-0.1,0
		c0,0,0,0,0,0c0,0,0,0,0,0c0,0,0,0,0,0c0,0-0.1,0-0.1,0c0,0,0,0,0,0h0c0,0-0.1,0-0.1,0h0c-0.1,0-0.1,0-0.1,0l0,0c0,0,0,0-0.1,0
		c0,0-0.1,0-0.1,0H2.1C2,25,2,25,2,25c-0.1,0-0.1,0-0.2,0H1.8l0.1,0c-0.1,0-0.1,0-0.1,0h0h0c0,0,0,0,0,0h0l0.2,0h0
		c-0.1,0-0.1,0-0.1,0c0.2,0,0.3,0,0.5,0c0,0-0.1,0-0.1,0c0.1,0,0.1,0,0.2,0c0,0,0,0-0.1,0c0,0,0,0,0,0s0,0,0,0c0,0,0,0,0,0
		c0-0.1-0.5-0.1-0.6,0c0,0,0,0,0.1,0c0,0,0,0,0,0c0,0-0.1,0-0.1,0c0,0,0,0,0,0c0,0,0.1,0,0.1,0c0,0-0.2-0.1-0.2,0c0,0,0,0.1,0,0.1
		c0,0,0,0,0,0c0,0,0,0-0.1,0c0,0-0.1,0-0.1,0s0,0,0,0s0,0,0,0c0,0,0,0,0,0H1.1c-0.2,0-0.2,0-0.2,0c0,0,0,0,0,0c0,0,0,0,0,0
		c0,0,0,0,0,0l0,0c0,0,0,0,0,0c0,0,0,0,0,0c0,0,0,0,0,0c0,0,0,0-0.1,0c0,0,0,0,0,0.1c0,0,0,0,0,0c0,0,0,0,0,0s0,0-0.1,0
		c-0.1,0-0.1,0-0.1,0c0,0,0,0,0,0v0c0,0,0,0,0,0c0,0,0,0,0,0c0,0,0,0,0,0c0,0,0,0,0,0c0,0,0,0,0,0l0,0c0,0,0,0,0,0c0,0,0,0,0,0h0v0
		c0,0,0,0-0.1,0c0,0,0,0,0,0c0,0,0,0,0,0c0,0.1,0,0.3,0.1,0.3c0,0,0,0,0,0c0,0,0,0,0,0c0,0,0,0,0,0c0,0,0-0.1,0-0.1
		c0,0.1,0,0.2-0.1,0.2s0,0.1,0,0.1v0c0,0,0,0,0,0c0,0,0,0,0,0c0,0,0-0.1-0.1,0c0,0,0,0,0,0c0,0,0,0,0,0c0,0,0,0,0.1,0c0,0,0,0,0,0
		c0,0,0,0,0,0c0,0,0,0,0,0c0,0,0,0,0,0c0,0,0,0,0,0l0,0h0c0,0,0,0,0,0c0,0-0.1,0-0.1,0c0,0,0,0-0.1,0H0.3V26v-0.1v0.1c0,0,0,0,0,0.1
		c0-0.1,0-0.1,0-0.1c0,0,0,0,0,0l0,0c0,0,0,0,0,0c0,0,0,0-0.1,0c0,0,0,0,0,0.1c0,0,0,0,0,0c0,0-0.1,0.1,0,0.1c0.1,0,0.1,0,0.1-0.1
		c0,0,0,0.1-0.1,0.1c0,0,0,0,0,0c0,0,0,0,0,0c0,0,0,0,0,0c0,0-0.1,0-0.1,0H0v0.1c0,0.1,0,0.1,0.1,0.1l0.1,0l0,0h0c0,0,0,0,0,0
		c0,0,0,0,0,0c0,0,0,0,0,0c0,0,0,0,0,0c0,0,0,0,0,0c0,0,0,0,0,0c0,0,0,0,0,0c0,0,0,0,0,0c0,0,0,0,0-0.1c0,0,0,0,0,0c0,0,0,0,0,0
		c0,0,0,0,0,0c0,0,0,0,0,0l0,0h0.1c0.1,0,0.1,0,0.1,0s0,0,0,0c0.1,0,0.2,0,0.3,0h0c0,0,0,0,0,0c-0.1,0-0.2,0-0.4,0c0,0,0.1,0,0.1,0
		c0.1,0,0.1,0,0.2,0H0.7h0h0c0,0,0,0-0.1,0c-0.1,0-0.1,0-0.2,0c0,0,0,0,0,0c0,0,0,0,0,0v0c0,0.1,0,0.1,0.2,0.1h0.2v0c0,0,0,0,0,0
		c0,0,0,0,0-0.1v0l0,0.1v0c0,0,0-0.1,0-0.1c0,0,0,0,0,0.1c0,0,0,0,0,0c0,0,0-0.1,0-0.1c0,0,0,0,0,0.1v0.1H1c0.1,0,0.1,0,0.1,0
		c0,0,0,0,0,0l0,0c0,0,0,0,0,0l0,0c0,0,0,0,0,0c0,0,0,0,0,0c0,0,0.1,0,0.1,0c0,0,0,0-0.1,0c0,0,0,0,0,0c0,0,0,0,0,0c0,0,0,0,0,0
		c0,0,0,0,0,0c0,0,0,0,0.1,0c0,0,0,0,0,0c0,0,0,0,0,0c0,0,0,0,0,0c0,0,0,0,0,0c0,0,0,0,0,0c0,0,0,0,0,0v0v0c0,0,0,0,0.1,0s0.1,0,0,0
		c0,0,0,0,0,0c0,0,0-0.1,0-0.1c0,0,0,0,0.1,0c0,0,0.1,0,0.1,0l0,0l0.1,0c0,0,0,0,0,0c0,0,0,0,0,0h0c0,0,0,0,0,0v0
		c-0.1,0-0.2,0-0.3,0c0,0,0.1,0,0.1,0c0.1,0,0.1,0,0,0c0,0-0.1,0-0.1,0c0,0,0,0,0,0c0,0,0,0.1,0.1,0.1c0,0,0,0,0,0c0,0,0,0,0,0
		c0,0,0.1,0,0.1,0l-0.1,0l0.1,0c0,0,0.1,0,0.1,0c0,0,0,0-0.1,0c-0.1,0-0.1,0-0.1,0c0,0.1,0.1,0.1,0.2,0c0,0,0,0,0.1,0c0,0,0,0,0,0
		c0,0,0,0,0,0c0,0,0,0,0,0c0,0,0,0,0,0l0,0c0,0,0,0,0,0c0,0,0,0,0,0c0,0,0,0,0,0c0,0,0,0,0,0v0v0c0,0,0,0,0,0c0,0,0,0,0,0
		c0,0,0,0,0.1,0c0,0,0,0,0,0v0l0,0H2c0.2,0,0.2,0,0.2,0h0c0,0,0,0.1,0,0.1c0,0,0.1,0,0-0.1c0,0,0,0,0-0.1c0,0,0,0,0,0c0,0,0,0,0,0
		c0,0,0,0,0,0.1c0,0,0,0,0,0c0,0,0,0,0,0c0.1,0,0.1,0,0.1,0.1c0,0,0.2,0,0.2,0l0,0H2.6c0,0,0,0,0,0c0,0,0,0,0,0l0,0c0,0,0,0,0,0
		c0,0,0,0,0,0c0,0,0,0,0.1,0c0.1,0,0.1,0,0.1,0c0,0,0,0,0.1,0c0.1,0,0.1,0,0.1,0s0,0,0,0c0,0,0,0,0,0c0,0,0,0,0,0s0,0,0,0
		c0,0,0,0,0,0c0,0,0,0,0,0v0l0,0v0c0,0,0,0,0,0c0,0,0,0,0,0c0,0,0,0,0,0c0,0,0.1,0,0.1,0c0.2,0,0.4,0.1,0.6,0c0,0,0.1-0.1,0.1-0.1
		s0.1,0,0.1,0.1s0,0.1,0.1,0.1c0,0,0.1,0,0.1-0.1s0.2,0,0.2,0c0,0,0.1,0,0.1,0c0,0,0,0,0.3,0s0.2,0,0.2,0c0,0,0,0,0,0c0,0,0,0,0,0
		c0,0,0,0,0,0v0c0,0,0,0,0,0c0,0,0,0,0,0c0,0,0,0,0,0v0v0c0,0,0,0,0,0c0.1,0,0.1-0.1,0-0.1h0h0c0,0,0,0,0,0c0,0,0,0-0.1,0
		c0,0,0,0,0.1,0c0,0,0,0,0,0c0,0,0,0,0,0c0,0,0,0,0,0h0c0,0,0,0,0.1,0c0,0,0,0,0,0c0,0,0,0,0,0c0,0,0,0,0.1,0c0,0,0.1,0,0.1,0
		c0,0,0,0,0,0c0,0,0,0,0,0c0,0,0.3,0,0.4,0c0,0,0.1,0.1,0.1,0c0,0,0,0,0,0c0,0,0,0,0.1,0c0,0,0,0,0,0v0c0,0,0,0,0.1,0c0,0,0,0,0,0
		c0,0,0,0,0,0c0,0,0-0.1,0-0.1c0,0,0,0,0,0c0,0,0,0,0,0c0,0,0-0.1,0-0.1c0,0,0,0,0.1,0.1s0,0,0,0c0,0,0,0,0,0c0,0,0,0,0,0v0h0.7
		v-0.1c0,0,0,0,0,0c0,0,0,0,0,0v0.1v-0.1c0,0,0,0,0-0.1c0,0,0,0,0,0.1c0,0,0,0,0,0c0,0,0-0.1,0-0.1l0,0c0,0,0,0,0,0c0,0,0,0,0,0
		c0,0,0,0,0,0.1c0,0.1,0.2,0.1,0.2,0.1c0,0,0,0,0,0c0,0,0,0,0,0c0,0,0,0,0,0c0,0,0,0,0,0h0c0,0,0,0,0,0h0c0,0,0,0,0,0c0,0,0,0,0.1,0
		c0.1,0,0.1,0,0.2,0c0.1,0,0.1,0,0.2,0c0,0,0,0,0.1,0c0,0,0.1,0,0.1,0c0,0,0.1,0.1,0.2,0c0,0,0,0,0,0c0,0-0.1,0-0.1,0
		c0,0,0.1,0.1,0.1,0c0,0,0,0,0,0c0,0,0,0,0,0c0,0,0,0,0,0c0,0,0,0,0,0c0,0-0.1,0-0.1,0c0,0,0,0,0,0v0c0,0,0,0,0.1,0c0,0,0.1,0,0,0
		c0,0,0,0,0,0h0c0.1,0,0.1,0,0.1,0c0,0,0,0,0,0s0,0,0,0s0,0,0.1,0c0.1,0,0.1,0,0.1,0v-0.1h0.3v0c0,0,0,0,0,0c0,0,0,0,0.1,0
		c0,0,0,0,0,0c0,0,0.1,0.1,0.1,0l0,0c0,0,0,0,0,0h0c0,0,0,0,0,0c0,0,0,0-0.1,0c-0.1,0-0.1,0-0.1,0c0,0,0,0,0,0c0,0,0,0,0.1,0
		c0,0,0,0,0,0h0l0,0l0,0c0,0,0,0,0,0c0,0,0,0,0,0c0,0,0,0,0.1,0s0.1,0,0.1,0v0v0c0,0.1,0.2,0.1,0.3,0s0.1-0.1,0.1,0v0H10v0
		c0,0,0,0,0.1,0s0.1,0,0.1,0v0h0.3v0c0,0,0,0,0.1,0c0.1,0,0.1,0,0.1,0v0h0.5v-0.1c0,0,0,0,0,0v0l0,0c0,0,0.1,0,0.1,0c0,0,0,0,0,0
		l0,0c0,0,0,0,0,0c0,0,0,0,0,0v0c0,0,0,0,0,0c0,0,0,0,0,0c0,0,0,0,0,0h0c0,0,0,0,0,0c0,0,0,0.1,0,0.1c0,0,0,0,0,0c0,0,0,0,0,0
		c0,0,0,0,0,0s0,0,0,0s0,0,0,0c0,0,0,0,0,0s0,0,0,0c0,0,0,0,0,0c0,0.1,0,0,0,0c0-0.1,0-0.1,0-0.1c0,0,0,0,0,0.1v0c0,0,0,0.1,0,0.1
		s0,0,0,0v0h0.1c0.1,0,0.1,0,0.1,0s0.2-0.1,0.2,0c0,0,0,0,0.2,0s0.2,0,0.2,0c0,0,0.1,0,0.1,0c0.1,0,0,0,0.3,0h0.3l0,0c0,0,0,0,0,0
		s0,0,0,0c0,0,0,0,0,0c0,0,0.1,0,0.1-0.1c0,0-0.1,0-0.1,0c0,0,0,0,0,0c0,0,0,0,0-0.1c0,0,0,0,0,0c0,0,0,0,0.1,0c0,0,0,0,0,0
		c0,0,0,0,0.1,0c0.1,0,0.1,0,0.1,0c0,0,0,0,0-0.1c0,0,0,0,0,0.1c0,0,0,0,0,0c0,0,0,0,0,0c0,0,0,0,0,0.1c0,0,0,0,0,0c0,0,0,0,0,0
		c0,0,0,0.1,0,0.1c0,0,0,0,0,0c0,0,0,0,0,0c0,0,0,0,0,0c0,0.1,0.1,0,0.1,0c0,0,0,0,0,0c0,0,0,0,0,0c0,0,0,0,0,0c0,0,0-0.1-0.1-0.1
		c0,0,0,0,0.1,0c0,0,0,0,0,0.1c0,0,0,0,0,0v0c0,0,0,0,0.1,0c0.1,0,0.1,0,0.1,0c0,0,0,0,0,0c0,0,0,0,0,0c0,0,0,0,0,0c0,0,0,0,0,0v0
		c0,0,0,0.1,0,0.1s0,0,0,0c0,0,0,0,0,0s0,0,0,0c0,0,0,0,0,0s0-0.1,0-0.1l0,0c0,0,0,0,0,0.1c0,0,0,0.1,0,0c0,0,0,0,0,0c0,0,0,0,0,0
		c0,0,0,0,0,0c0,0,0.1,0,0.1,0c0,0,0,0,0.1,0c0.1,0,0.1,0,0.2,0c0,0,0.1,0,0.1,0c0,0,0,0,0-0.1c0.1,0,0.3,0,0.4,0c0,0,0.1,0,0.1,0
		c0,0,0,0,0.1,0c0,0,0.1,0,0.1,0c0,0,0,0,0,0c0,0,0,0,0,0c0,0,0,0,0,0c0,0,0,0,0,0c0,0,0,0,0,0c0,0,0,0,0,0c0,0,0,0,0,0
		c0,0,0.1,0.1,0.1,0.1c0,0,0,0,0,0c0,0,0,0,0,0c0,0,0-0.1,0-0.1c0,0,0,0,0,0c0,0,0,0,0,0c0,0,0-0.1,0-0.1c0,0,0,0,0,0l0,0v0h0.1
		c0.1,0,0.1,0,0.1,0c0,0,0,0-0.1,0h0c0,0,0,0,0,0c0,0,0,0,0,0c0,0,0,0,0,0h0.1c0,0,0-0.1,0.1-0.1c0,0,0,0,0.1,0c0,0,0.1,0,0.1,0
		c0,0,0.1,0,0.1,0c0,0,0,0,0.1,0c0,0,0.1,0,0.1,0c0,0,0,0,0,0c0,0,0,0,0,0c0,0,0,0,0.1,0c0,0,0,0,0,0c0,0,0,0,0,0c0,0,0,0,0,0h0
		c0,0,0.1,0,0.1,0c0,0,0.1,0,0.1,0c0,0,0,0,0,0h0h0c0,0,0.2,0,0.2,0c0,0.1,0.3,0.1,0.3,0c0,0,0,0,0.1,0c0.1,0,0.1,0,0.1,0v0h0.3
		c0.2,0,0.3,0,0.3,0c0,0,0,0,0,0c0,0,0.1,0,0.1,0c0.1,0,0.1,0,0.1,0s0,0,0.2,0h0.2v0c0,0,0,0,0.2,0c0.2,0,0.3,0,0.3-0.1s0,0,0,0
		c0,0,0.1,0.1,0.2,0c0,0,0,0,0,0c0,0,0.1,0,0.1,0h0.1h0h0c0.1,0,0.1,0,0.1,0c0,0,0,0,0,0c0,0,0,0,0,0h-0.1c-0.1,0-0.2,0-0.2,0
		c0,0.1,0.1,0.1,0.2,0c0,0,0,0,0.1,0c0.1,0,0.1-0.1,0.1-0.1c0,0,0,0,0,0c0,0,0,0,0,0v0v0c0,0,0,0,0,0c0,0,0,0,0,0c0,0,0,0,0,0l0,0
		h0.2c0.2,0,0.2,0,0.2,0s0.3-0.1,0.3,0v0H21l0,0c0-0.1,0.3-0.1,0.3,0c0,0,0,0,0.1,0s0.1,0,0.1,0c0,0,0,0,0,0c0,0,0,0,0,0
		c0,0,0.1,0,0.1,0c0,0,0.1,0,0.1,0c0,0,0,0,0,0s0,0,0,0s0,0,0,0c-0.1,0-0.1,0-0.2,0c0,0,0,0,0,0h0l0,0c0,0,0,0,0,0c0,0,0.1,0,0.1,0
		c0,0,0.1,0,0.1,0c0,0,0,0,0,0c0,0,0,0,0.1,0c0.1,0,0.1,0,0.1,0c0,0,0,0,0,0c0,0,0,0,0,0c0,0,0.1,0.1,0.1,0c0,0,0,0,0,0c0,0,0,0,0,0
		h0c0,0,0,0,0,0c0,0,0,0,0,0h0.1c0,0,0,0,0,0c0,0,0,0,0,0h0c0,0,0,0,0,0c0,0,0,0,0,0c0,0,0,0,0,0c0,0,0.1,0,0.1,0h0l0,0h0
		c0,0,0,0,0,0c0,0,0,0,0,0c0,0,0,0,0,0c0,0,0,0,0,0c0,0,0,0,0,0h0c0,0,0,0,0,0c0,0,0,0,0.1,0c0,0,0,0,0.1,0c0,0,0,0,0,0c0,0,0,0,0,0
		v0c0,0,0,0,0,0c0,0,0,0.1,0,0s0,0,0,0c0,0,0,0,0,0c0,0,0,0,0,0c0,0,0,0,0,0s0,0,0,0v0c0,0,0,0,0,0c0,0,0,0,0,0v0c0,0,0,0,0,0
		c0,0,0,0,0,0c0.1,0,0.1,0,0.1,0.1c0,0,0,0,0.2,0c0.2,0,0.2,0,0.3,0c0,0,0,0,0,0c0,0,0,0,0,0c0,0,0,0,0,0l0,0c0,0,0,0,0,0
		c0,0,0,0,0,0c0,0,0,0,0,0.1c0,0,0,0,0,0l0,0v0c0,0,0,0,0,0c0,0,0,0,0,0v0c0,0,0,0,0,0c0,0,0,0,0,0s0,0,0-0.1v0.1h0.1
		c0.1,0,0.1,0,0.1,0c0,0,0,0,0.1,0c0,0,0,0,0,0c0,0,0,0,0.1,0s0.1,0,0.1,0s0,0,0,0c0,0,0,0,0,0v0h0.2c0,0,0.1,0,0.1,0c0,0,0,0,0,0
		c0,0,0,0,0,0c0-0.1,0.1-0.1,0.1,0v0c0,0,0,0,0.1,0c0.1,0,0.1,0,0.1,0s0,0,0.1,0s0.1,0,0.1,0v0h0.5l0,0c0-0.1,0.2-0.1,0.2,0
		s0,0,0.1,0c0.1,0,0.1,0,0.1,0v0h0.1c0.1,0,0.1,0,0.1,0c0,0,0,0,0,0h0c0,0,0,0,0,0c0,0,0,0,0,0c0,0,0,0,0,0c0,0,0,0,0,0
		c0,0,0,0.1,0.1,0.1c0,0,0,0,0,0c0,0,0,0,0,0c0,0,0-0.1,0-0.1c0,0,0,0,0,0c0,0,0,0,0,0.1v0.1v-0.1c0,0,0,0,0-0.1c0,0,0,0,0,0.1v0
		h0.4c0.4,0,0.4,0,0.4,0c0,0,0,0,0,0c0,0,0,0,0,0c0,0,0,0,0,0c0,0,0,0,0,0c0,0,0,0,0,0c0,0,0.1,0,0.1,0c0,0,0-0.1-0.1-0.1
		c0,0,0,0-0.1,0c0,0,0,0,0.1,0h0c0,0-0.1,0-0.1,0c0,0,0,0,0,0c0,0,0,0,0,0c0,0,0,0,0,0c0,0,0,0,0,0c0,0,0,0,0,0c0,0,0,0,0,0s0,0,0,0
		c0,0,0,0,0,0c-0.1-0.1-0.1-0.1,0-0.1c0,0,0,0,0,0c0,0,0,0,0.1,0c0,0-0.1,0-0.1,0c0,0,0,0,0,0c0,0,0,0,0,0c0,0,0.1,0.1,0.1,0.1
		c0,0,0,0,0,0c0,0,0.1,0,0.1,0c0,0,0,0,0,0c0,0,0,0,0,0c0.1,0,0.1,0,0.2,0c0.2,0,0.2,0,0.2,0v0l0,0c0,0.1,0.1,0,0.1,0
		c0.1,0,0.2,0,0.4,0c0,0,0,0,0,0c0,0,0,0,0,0c0,0,0,0,0,0c0,0,0.1,0,0.1,0l0,0v0c0,0,0,0,0.1,0s0.1,0,0.1,0c0,0,0,0,0,0c0,0,0,0,0,0
		c0,0,0,0,0,0c0,0,0,0,0-0.1h0.1c0,0,0.1,0,0.1,0c0,0,0,0,0,0h0h-0.1c0.1,0,0.1,0,0.1-0.1c0,0,0,0,0-0.1c0,0,0,0,0,0.1v0.1l0-0.1
		c0,0,0,0,0,0c0,0,0,0,0,0c0,0,0,0.1,0,0.1s0,0,0,0c0,0,0,0,0,0c0,0,0,0,0,0c0,0,0,0,0,0c0,0,0-0.1,0-0.1c0,0,0,0,0,0c0,0,0,0,0,0.1
		c0,0,0,0,0,0c0,0,0-0.1,0-0.1c0,0,0,0,0,0.1c0,0,0,0,0,0c0,0,0,0,0,0c0,0,0,0,0,0.1c0,0,0.1,0,0.1,0c0,0,0,0,0,0h0h0c0,0,0,0,0.1,0
		c0,0,0,0,0.1,0h0c0,0,0,0,0,0c0,0,0,0,0,0s0.1,0,0.3,0h0.3l0,0c0,0,0,0,0.1,0s0.2,0,0.1,0c0,0,0,0,0,0c0,0,0,0,0-0.1c0,0,0,0,0,0
		c0,0,0,0,0,0c0,0,0,0,0.1,0c0.1,0,0.2,0,0.1-0.1c0,0,0,0,0,0c0,0,0,0,0-0.1h0c0,0,0,0,0,0.1c0,0.1,0,0.1,0.1,0c0,0,0,0,0-0.1
		c0,0,0,0,0-0.1h0c0,0,0,0,0,0c0,0,0,0,0,0c0,0,0,0,0,0c0,0,0,0,0,0c0,0,0,0,0,0v0c0,0,0,0,0-0.1v-0.1c0,0,0-0.1,0-0.1c0,0,0,0,0,0
		c0,0,0,0,0,0h0c0,0.2,0,0.3,0,0.3c0,0,0.1-0.1,0.1-0.1c0,0,0-0.1,0-0.1c0,0,0,0,0-0.1c0,0,0,0,0,0c0,0,0,0,0,0h0.1c0,0,0,0,0.1,0
		c0,0,0,0,0.1,0s0.1,0,0,0c0,0,0,0,0,0v0c0,0,0,0,0.1,0c0,0,0,0,0,0h0c0,0,0,0,0,0s0,0,0.1,0c0.1,0,0.1,0,0.1-0.1c0,0,0,0,0,0
		S30.8,25.9,30.8,25.8C30.8,25.8,30.9,25.8,30.8,25.8L30.8,25.8z M25.4,22.2c-1.2,0-2.3-1.2-2.3-2.8V8h5.1V7.2h-5.1V0h-0.4
		c-0.5,4.1-2.6,6.8-5.6,7.6V8h3.2v10.6c0,2.8,1.5,4.3,4.4,4.3c1,0,1.6-0.3,2.3-1.1C27,21.8,26.6,22.2,25.4,22.2z M17,22.3
		c-0.9,0-1.3-1.2-1.3-3.2v-7.3c0-3.4-1.8-5-5.5-5c-2.9,0-5.8,1.7-5.8,4.1c0,1.1,0.7,2.1,1.7,2.1s1.7-0.7,1.7-1.7
		c0-0.6-0.2-1.3-1-1.6c-0.9-0.3-1.2,0.7-1.2,0.1c0-1.3,2.7-2.6,4-2.6c2.5,0,3.4,1.3,3.4,3.3v2.8c-1,0.5-2.1,0.9-3.2,1.1
		c-3,0.6-6.4,1.4-6.4,4.6c0,2.3,2,4,5.1,4c2.4,0,3.7-1.4,4.8-3.8c0.3,2.8,1.5,3.8,3,3.8c0.8,0,1.6-0.1,2.1-1
		C18.3,21.9,18,22.3,17,22.3L17,22.3z M13,17.3c0,2.6-2,5.1-4.1,5.1c-1.8,0-2.6-1.3-2.6-3c0-3.4,1.8-4,4.6-4.8
		c0.7-0.2,1.4-0.4,2-0.7L13,17.3L13,17.3z"/>
</g>
</svg>
